<?xml version="1.0" encoding="UTF-8"?>
<svg version="1.1" xmlns="http://www.w3.org/2000/svg" width="512" height="512">
<path d="M0 0 C1.51671886 1.26424817 3.0593383 2.49722026 4.60253906 3.72900391 C19.28864031 15.68237492 33.1902857 29.28168978 44.33349609 44.62451172 C45.62066708 46.38127784 46.9453607 48.10442915 48.27832031 49.82666016 C72.45591287 81.38831197 88.32687017 120.12752123 94.56347656 159.30322266 C94.72428711 160.30675781 94.88509766 161.31029297 95.05078125 162.34423828 C99.15307909 189.19102865 98.85784384 216.50430539 94.56347656 243.30322266 C94.40782227 244.28097656 94.25216797 245.25873047 94.09179688 246.26611328 C83.83070262 307.66882901 48.55341729 366.91574741 -1.70214844 404.01318359 C-3.45613547 405.31781021 -5.18141301 406.65442649 -6.90527344 407.99853516 C-58.49573872 447.71022316 -126.64664264 463.36497081 -190.72607422 455.71557617 C-232.1290536 450.25493496 -271.20213463 435.19680584 -305.43652344 411.30322266 C-306.15565918 410.80177734 -306.87479492 410.30033203 -307.61572266 409.78369141 C-318.02591578 402.43816999 -327.32460976 394.18751632 -336.43652344 385.30322266 C-337.07509277 384.69043457 -337.71366211 384.07764648 -338.37158203 383.44628906 C-346.67181637 375.47831329 -354.27219981 367.3099454 -361.12597656 358.0625 C-362.45449434 356.27909852 -363.81012381 354.5191275 -365.17089844 352.76025391 C-404.6647793 301.10368044 -421.02435224 232.73318877 -412.84033203 168.60058594 C-412.40469949 165.49544331 -411.93264328 162.39924907 -411.43652344 159.30322266 C-411.28086914 158.32546875 -411.12521484 157.34771484 -410.96484375 156.34033203 C-402.66879853 106.69653249 -378.42754956 60.28925426 -343.43652344 24.30322266 C-342.82550781 23.66642578 -342.21449219 23.02962891 -341.58496094 22.37353516 C-333.27930111 13.73697254 -324.82481479 5.71874882 -315.1796875 -1.40234375 C-313.40167473 -2.7226552 -311.64898673 -4.07204745 -309.89746094 -5.42724609 C-231.90738178 -65.10203185 -121.53510399 -69.85830349 0 0 Z " fill="#FEB832" transform="translate(414.4365234375,54.69677734375)"/>
<path d="M0 0 C0.77730469 -0.00322266 1.55460937 -0.00644531 2.35546875 -0.00976562 C7.29424741 0.03588695 11.47586403 0.60941035 16.125 2.3125 C19.19078572 6.0352398 20.52108007 10.80624876 22.125 15.3125 C26.21826207 14.04154849 26.21826207 14.04154849 30.0625 12.1875 C33.26125464 10.83045257 35.67567839 10.97475393 39.125 11.3125 C41.48405884 12.93082031 43.21144913 14.32116116 45.1875 16.3125 C45.96130005 17.06200928 45.96130005 17.06200928 46.75073242 17.82666016 C57.00644943 27.94148858 57.00644943 27.94148858 57.25 32.8125 C55.91663374 35.77553614 54.50280274 38.68050416 52.96484375 41.54296875 C51.98207599 43.28718448 51.98207599 43.28718448 52.125 45.3125 C52.96804688 45.65023437 53.81109375 45.98796875 54.6796875 46.3359375 C56.32324219 47.00496094 56.32324219 47.00496094 58 47.6875 C59.09054687 48.12835938 60.18109375 48.56921875 61.3046875 49.0234375 C64.125 50.3125 64.125 50.3125 66.125 52.3125 C67.20216512 56.92990206 67.30803427 61.52971851 67.3125 66.25 C67.32474609 66.92740234 67.33699219 67.60480469 67.34960938 68.30273438 C67.36305897 72.97871056 67.01959296 77.01668197 65.125 81.3125 C62.0859375 83.08984375 62.0859375 83.08984375 58.5 84.25 C57.31148438 84.65089844 56.12296875 85.05179687 54.8984375 85.46484375 C53.52558594 85.88443359 53.52558594 85.88443359 52.125 86.3125 C53.15534656 89.54751824 54.16872324 92.39184958 55.8125 95.375 C57.34809613 98.8118104 57.24460869 99.79072618 56.125 103.3125 C53.46435992 106.95306332 50.28346528 110.10066587 47.125 113.3125 C46.33738281 114.12460938 45.54976563 114.93671875 44.73828125 115.7734375 C39.09653603 121.23319094 39.09653603 121.23319094 35.0625 121.5625 C31.31212085 119.96659398 27.721416 118.23472234 24.125 116.3125 C24.125 121.9225 24.125 127.5325 24.125 133.3125 C25.445 133.9725 26.765 134.6325 28.125 135.3125 C28.125 167.6525 28.125 199.9925 28.125 233.3125 C33.405 233.3125 38.685 233.3125 44.125 233.3125 C48.125 236.3125 48.125 236.3125 48.64257812 238.45385742 C48.6493457 239.67359253 48.6493457 239.67359253 48.65625 240.91796875 C48.66140625 241.81966797 48.6665625 242.72136719 48.671875 243.65039062 C48.65640625 244.59076172 48.6409375 245.53113281 48.625 246.5 C48.64046875 247.42103516 48.6559375 248.34207031 48.671875 249.29101562 C48.633459 256.05703326 47.46236897 261.79891705 42.67773438 266.83618164 C38.22406369 270.71213561 34.76782717 272.56144479 28.88627052 272.56697559 C27.81957087 272.57280779 26.75287122 272.57863998 25.65384734 272.58464891 C24.48285219 272.58086958 23.31185704 272.57709026 22.1053772 272.57319641 C20.86070942 272.57702196 19.61604165 272.58084751 18.33365667 272.58478898 C14.87672503 272.59333448 11.42000562 272.59288069 7.96307993 272.58860838 C4.2356545 272.58614578 0.50825427 272.59514954 -3.21916199 272.60264587 C-10.52256196 272.61540816 -17.82592519 272.61718464 -25.12933443 272.61484561 C-31.06502377 272.6130639 -37.00070193 272.61480893 -42.93638992 272.61907005 C-43.7806008 272.61966524 -44.62481169 272.62026043 -45.49460471 272.62087366 C-47.20952919 272.62208539 -48.92445367 272.62329952 -50.63937815 272.62451603 C-66.72947727 272.63539758 -82.81955545 272.63322624 -98.90965576 272.62713119 C-113.63288849 272.62196217 -128.35605506 272.63321597 -143.0792747 272.65222941 C-158.19222242 272.6715967 -173.30513883 272.67986571 -188.41809905 272.67610615 C-196.90479625 272.67419233 -205.39143714 272.67669919 -213.87812424 272.69082069 C-221.10338969 272.70272139 -228.32856417 272.7041542 -235.55383085 272.69203053 C-239.24064623 272.68613242 -242.92729511 272.68506796 -246.6140995 272.69703293 C-250.61000226 272.70985036 -254.60550699 272.6994494 -258.60140991 272.6867218 C-259.76794361 272.69409609 -260.93447732 272.70147037 -262.13636053 272.70906812 C-268.95001209 272.66325957 -273.73310587 272.18323629 -278.95703125 267.41015625 C-279.52808594 266.73855469 -280.09914063 266.06695312 -280.6875 265.375 C-281.27144531 264.70597656 -281.85539062 264.03695313 -282.45703125 263.34765625 C-285.86828482 258.45161462 -285.05865338 252.41126643 -285.0625 246.6875 C-285.07474609 245.72070312 -285.08699219 244.75390625 -285.09960938 243.7578125 C-285.10154297 242.83484375 -285.10347656 241.911875 -285.10546875 240.9609375 C-285.10957764 240.11708496 -285.11368652 239.27323242 -285.11791992 238.40380859 C-284.875 236.3125 -284.875 236.3125 -282.875 234.3125 C-280.53662109 234.08544922 -280.53662109 234.08544922 -277.6484375 234.1171875 C-276.1015625 234.12685547 -276.1015625 234.12685547 -274.5234375 234.13671875 C-272.90308594 234.16185547 -272.90308594 234.16185547 -271.25 234.1875 C-270.16203125 234.19652344 -269.0740625 234.20554687 -267.953125 234.21484375 C-265.26019848 234.23846591 -262.56770745 234.27140444 -259.875 234.3125 C-259.87868717 233.36459028 -259.88237434 232.41668056 -259.88617325 231.44004631 C-259.97495344 208.38018802 -260.04069444 185.32035188 -260.08224869 162.26035881 C-260.10287791 151.10873212 -260.13100549 139.95721831 -260.17675781 128.80566406 C-260.21661443 119.0864845 -260.24243019 109.36738668 -260.25135398 99.64812768 C-260.25657069 94.50135755 -260.26883951 89.35482128 -260.29792023 84.20812607 C-260.32507066 79.36380131 -260.3334457 74.51980674 -260.32743073 69.67541313 C-260.32853112 67.89765186 -260.33648723 66.11987954 -260.3518219 64.34218407 C-260.3717444 61.91349858 -260.36693155 59.48605722 -260.35601807 57.05734253 C-260.36766943 56.35499414 -260.3793208 55.65264576 -260.39132524 54.92901409 C-260.33058891 49.92338825 -259.09413778 47.10960328 -255.875 43.3125 C-251.44791507 39.57138331 -247.90586202 38.73372891 -242.25750732 38.81802368 C-241.51058538 38.81319485 -240.76366343 38.80836602 -239.99410748 38.80339086 C-237.50189611 38.792157 -235.01071931 38.80940975 -232.51855469 38.82666016 C-230.72783125 38.82451343 -228.93710917 38.82063445 -227.14639282 38.81515503 C-222.29125912 38.80547195 -217.43649384 38.82074998 -212.58140469 38.84106112 C-207.50278077 38.85863635 -202.42416815 38.85510701 -197.34552002 38.8543396 C-188.82142981 38.85621168 -180.29748216 38.87356681 -171.7734375 38.90087891 C-161.90878111 38.93236902 -152.04428061 38.94287367 -142.17957759 38.9414078 C-132.6957792 38.94018872 -123.21203171 38.9503834 -113.7282486 38.96699142 C-109.68840386 38.97406458 -105.64857713 38.97771897 -101.6087265 38.97877884 C-96.85793188 38.98078251 -92.10726898 38.99294931 -87.35651779 39.01311111 C-85.60934887 39.01896986 -83.86216479 39.02141009 -82.11498642 39.02025604 C-79.73803533 39.01927983 -77.36145739 39.03053381 -74.98455811 39.04507446 C-73.93720682 39.04042866 -73.93720682 39.04042866 -72.86869693 39.035689 C-68.10335902 39.08414098 -68.10335902 39.08414098 -65.875 41.3125 C-65.875 42.3025 -65.875 43.2925 -65.875 44.3125 C-57.46 43.8175 -57.46 43.8175 -48.875 43.3125 C-49.720625 41.765625 -50.56625 40.21875 -51.4375 38.625 C-52.95407788 35.85077217 -53.88186157 34.03182082 -53.8515625 30.85546875 C-52.50704536 27.35434613 -50.24685903 24.96964745 -47.6875 22.3125 C-47.21763672 21.80460937 -46.74777344 21.29671875 -46.26367188 20.7734375 C-37.65097701 11.60849617 -37.65097701 11.60849617 -32.5 10.75 C-28.61740303 11.35247194 -25.95954584 12.52203006 -22.57421875 14.4375 C-20.89719565 15.46510325 -20.89719565 15.46510325 -18.875 15.3125 C-18.42060547 14.06533203 -18.42060547 14.06533203 -17.95703125 12.79296875 C-17.53808594 11.70628906 -17.11914062 10.61960938 -16.6875 9.5 C-16.28144531 8.42105469 -15.87539063 7.34210938 -15.45703125 6.23046875 C-11.90394371 -0.32300382 -6.72542305 -0.13804234 0 0 Z " fill="#4F5677" transform="translate(364.875,119.6875)"/>
<path d="M0 0 C1.98 0 3.96 0 6 0 C6.09796875 0.97582031 6.1959375 1.95164063 6.296875 2.95703125 C6.52117187 4.86548828 6.52117187 4.86548828 6.75 6.8125 C6.95882812 8.70935547 6.95882812 8.70935547 7.171875 10.64453125 C7.70051051 13.99328403 7.70051051 13.99328403 9.75 15.8125 C12.20797725 17.10976577 14.65279531 18.19646137 17.25 19.1875 C18.14203125 19.53167969 19.0340625 19.87585938 19.953125 20.23046875 C20.96632813 20.61138672 20.96632813 20.61138672 22 21 C20.20111732 26.65363128 20.20111732 26.65363128 18.875 28.9375 C17.51653821 32.13958851 17.658616 34.54663128 18 38 C19.63919056 40.37727095 21.05204666 42.1298613 23.0625 44.125 C23.81587646 44.90266724 23.81587646 44.90266724 24.58447266 45.69604492 C30.53921595 52.24988416 30.53921595 52.24988416 38.4375 55.0625 C41.44962024 53.81357209 44.29339527 52.34419333 47.1328125 50.7421875 C49 50 49 50 52 51 C53.140625 53.65234375 53.140625 53.65234375 54.25 56.9375 C56.05714607 61.86813807 56.05714607 61.86813807 60.3125 64.6875 C61.529375 64.790625 62.74625 64.89375 64 65 C65.47962255 65.20507049 66.95879942 65.41338384 68.4375 65.625 C70.2009375 65.810625 70.2009375 65.810625 72 66 C72 67.32 72 68.64 72 70 C70.02 71.485 70.02 71.485 68 73 C67.67 97.42 67.34 121.84 67 147 C-7.58 147 -82.16 147 -159 147 C-159 100.14 -159 53.28 -159 5 C-107.19 4.67 -55.38 4.34 -2 4 C-1.34 2.68 -0.68 1.36 0 0 Z " fill="#D4EEFC" transform="translate(295,185)"/>
<path d="M0 0 C0.74692195 -0.00482883 1.49384389 -0.00965766 2.26339984 -0.01463282 C4.75561121 -0.02586668 7.24678802 -0.00861393 9.73895264 0.00863647 C11.52967608 0.00648975 13.32039816 0.00261077 15.1111145 -0.00286865 C19.96624821 -0.01255173 24.82101348 0.0027263 29.67610264 0.02303743 C34.75472655 0.04061267 39.83333918 0.03708333 44.9119873 0.03631592 C53.43607751 0.038188 61.96002516 0.05554313 70.48406982 0.08285522 C80.34872621 0.11434534 90.21322672 0.12484999 100.07792974 0.12338412 C109.56172813 0.12216504 119.04547561 0.13235972 128.52925873 0.14896774 C132.56910346 0.1560409 136.60893019 0.15969529 140.64878082 0.16075516 C145.39957544 0.16275883 150.15023834 0.17492563 154.90098953 0.19508743 C156.64815846 0.20094618 158.39534254 0.20338641 160.1425209 0.20223236 C162.51947199 0.20125615 164.89604994 0.21251013 167.27294922 0.22705078 C168.3203005 0.22240498 168.3203005 0.22240498 169.3888104 0.21766531 C174.15414831 0.2661173 174.15414831 0.2661173 176.38250732 2.49447632 C176.63250732 5.49447632 176.63250732 5.49447632 176.38250732 8.49447632 C173.96569967 10.91128397 172.71597274 10.73831711 169.41784614 10.77414995 C168.72398325 10.7715331 168.03012036 10.76891625 167.31523132 10.76622009 C166.21116726 10.77385035 166.21116726 10.77385035 165.08479887 10.78163475 C162.60577631 10.7963583 160.12695149 10.79683038 157.64788818 10.79745483 C155.87583527 10.80511178 154.10378601 10.81365733 152.33174133 10.82302856 C148.5099389 10.84133853 144.68818572 10.85335702 140.86634636 10.86056709 C134.82956962 10.8720226 128.79290215 10.8974645 122.75617981 10.92488098 C113.21285227 10.96657025 103.66951955 10.99896798 94.12614399 11.02735513 C77.02445088 11.07830499 59.92280288 11.14034156 42.82118708 11.21269554 C36.81357044 11.2376838 30.80596835 11.25708555 24.79831874 11.27207768 C21.06929524 11.28224785 17.34029429 11.29639347 13.61128807 11.31155396 C11.87498757 11.3177342 10.13867995 11.32217956 8.40237045 11.32481194 C6.04247127 11.32859564 3.68267283 11.33838453 1.32279968 11.34971619 C0.62670607 11.34933005 -0.06938754 11.34894392 -0.7865749 11.34854609 C-3.9799657 11.10387241 -3.9799657 11.10387241 -6.61749268 12.49447632 C-6.72749522 14.84692348 -6.77244914 17.17066899 -6.77571106 19.52415466 C-6.78064072 20.26641296 -6.78557037 21.00867126 -6.79064941 21.77342224 C-6.80611785 24.28728998 -6.81441109 26.80113235 -6.82281494 29.31503296 C-6.83252352 31.13739722 -6.84266861 32.9597592 -6.85321712 34.7821188 C-6.88035357 39.67994465 -6.90148414 44.57777954 -6.92140961 49.47563934 C-6.94097838 54.06490513 -6.96591146 58.65413549 -6.99041748 63.24337769 C-7.05902499 76.68121734 -7.11897519 90.11910006 -7.17999268 103.55697632 C-7.32436768 133.56635132 -7.46874268 163.57572632 -7.61749268 194.49447632 C80.82250732 194.49447632 169.26250732 194.49447632 260.38250732 194.49447632 C260.38250732 162.48447632 260.38250732 130.47447632 260.38250732 97.49447632 C261.04250732 96.50447632 261.70250732 95.51447632 262.38250732 94.49447632 C265.38250732 94.18197632 265.38250732 94.18197632 268.38250732 94.49447632 C271.0847719 97.1967409 270.6191513 99.29235902 270.63134766 102.96252441 C270.6241571 103.87170624 270.61696655 104.78088806 270.60955811 105.71762085 C270.60985016 106.67376282 270.61014221 107.62990479 270.61044312 108.61502075 C270.60904608 111.78586804 270.59346731 114.95648241 270.57781982 118.12728882 C270.57409102 120.32161328 270.57124342 122.5159394 270.56924438 124.71026611 C270.56159748 130.49385146 270.54193991 136.27733681 270.51983643 142.06088257 C270.49940075 147.95930631 270.49024755 153.85774616 270.48016357 159.75619507 C270.45869502 171.33566615 270.42454634 182.91506293 270.38250732 194.49447632 C271.49110107 194.45967163 272.59969482 194.42486694 273.74188232 194.38900757 C275.20540881 194.36086283 276.66895172 194.3335634 278.13250732 194.30697632 C278.8621167 194.2818396 279.59172607 194.25670288 280.34344482 194.23080444 C283.63449149 194.18592653 285.95693665 194.25834192 288.86578369 195.87236023 C290.86181181 198.00708619 290.897683 199.20283518 290.91375732 202.09994507 C290.91891357 203.00164429 290.92406982 203.90334351 290.92938232 204.83236694 C290.91391357 205.77273804 290.89844482 206.71310913 290.88250732 207.68197632 C290.89797607 208.60301147 290.91344482 209.52404663 290.92938232 210.47299194 C290.89096633 217.23900958 289.71987629 222.98089337 284.9352417 228.01815796 C280.48157101 231.89411193 277.0253345 233.74342111 271.14377785 233.74895191 C270.0770782 233.75478411 269.01037854 233.7606163 267.91135466 233.76662523 C266.74035951 233.7628459 265.56936437 233.75906658 264.36288452 233.75517273 C263.11821675 233.75899828 261.87354897 233.76282382 260.59116399 233.7667653 C257.13423236 233.7753108 253.67751294 233.77485701 250.22058725 233.7705847 C246.49316182 233.7681221 242.7657616 233.77712586 239.03834534 233.78462219 C231.73494537 233.79738448 224.43158213 233.79916096 217.12817289 233.79682193 C211.19248356 233.79504022 205.2568054 233.79678525 199.3211174 233.80104637 C198.47690652 233.80164156 197.63269564 233.80223675 196.76290261 233.80284997 C195.04797813 233.8040617 193.33305365 233.80527584 191.61812918 233.80649235 C175.52803005 233.8173739 159.43795187 233.81520256 143.34785156 233.8091075 C128.62461883 233.80393849 113.90145227 233.81519229 99.17823263 233.83420572 C84.0652849 233.85357302 68.9523685 233.86184203 53.83940828 233.85808247 C45.35271107 233.85616865 36.86607018 233.85867551 28.37938309 233.87279701 C21.15411763 233.88469771 13.92894315 233.88613052 6.70367648 233.87400685 C3.0168611 233.86810874 -0.66978778 233.86704427 -4.35659218 233.87900925 C-8.35249494 233.89182668 -12.34799966 233.88142572 -16.34390259 233.86869812 C-17.51043629 233.8760724 -18.67696999 233.88344669 -19.8788532 233.89104444 C-26.69250477 233.84523589 -31.47559854 233.36521261 -36.69952393 228.59213257 C-37.55610596 227.58473022 -37.55610596 227.58473022 -38.42999268 226.55697632 C-39.01393799 225.88795288 -39.5978833 225.21892944 -40.19952393 224.52963257 C-43.6107775 219.63359094 -42.80114606 213.59324275 -42.80499268 207.86947632 C-42.81723877 206.90267944 -42.82948486 205.93588257 -42.84210205 204.93978882 C-42.84403564 204.01682007 -42.84596924 203.09385132 -42.84796143 202.14291382 C-42.85207031 201.29906128 -42.8561792 200.45520874 -42.8604126 199.58578491 C-42.61749268 197.49447632 -42.61749268 197.49447632 -40.61749268 195.49447632 C-38.27911377 195.26742554 -38.27911377 195.26742554 -35.39093018 195.29916382 C-33.84405518 195.30883179 -33.84405518 195.30883179 -32.26593018 195.31869507 C-30.64557861 195.34383179 -30.64557861 195.34383179 -28.99249268 195.36947632 C-27.90452393 195.37849976 -26.81655518 195.38752319 -25.69561768 195.39682007 C-23.00269116 195.42044223 -20.31020012 195.45338076 -17.61749268 195.49447632 C-17.62117985 194.5465666 -17.62486702 193.59865688 -17.62866592 192.62202263 C-17.71744612 169.56216434 -17.78318712 146.5023282 -17.82474136 123.44233513 C-17.84537058 112.29070844 -17.87349816 101.13919463 -17.91925049 89.98764038 C-17.95910711 80.26846082 -17.98492287 70.549363 -17.99384665 60.83010399 C-17.99906337 55.68333387 -18.01133219 50.5367976 -18.0404129 45.39010239 C-18.06756334 40.54577763 -18.07593838 35.70178306 -18.0699234 30.85738945 C-18.0710238 29.07962818 -18.0789799 27.30185586 -18.09431458 25.52416039 C-18.11423708 23.0954749 -18.10942422 20.66803354 -18.09851074 18.23931885 C-18.11016211 17.53697046 -18.12181347 16.83462208 -18.13381791 16.11099041 C-18.07308158 11.10536457 -16.83663046 8.2915796 -13.61749268 4.49447632 C-9.19040774 0.75335963 -5.64835469 -0.08429477 0 0 Z " fill="#423C43" transform="translate(122.61749267578125,158.50552368164063)"/>
<path d="M0 0 C4.95 0 9.9 0 15 0 C15.9765625 2.21354167 16.953125 4.42708333 17.9296875 6.640625 C18.28289062 7.41921875 18.63609375 8.1978125 19 9 C19.49113281 10.09828125 19.49113281 10.09828125 19.9921875 11.21875 C20.913073 13.20771438 20.913073 13.20771438 23.25 14.25 C28.34611515 15.63984959 31.52711956 15.39999557 36.125 12.875 C37.08792969 12.28332031 37.08792969 12.28332031 38.0703125 11.6796875 C40 11 40 11 41.9765625 11.625 C44.35802391 13.24329038 46.24808132 15.0563507 48.25 17.125 C48.95640625 17.84945312 49.6628125 18.57390625 50.390625 19.3203125 C51.18726563 20.15175781 51.18726563 20.15175781 52 21 C50.20930233 26.62790698 50.20930233 26.62790698 48.875 29 C47.20067715 32.82702366 47.77933114 36.0989355 48.75 40.0625 C52.41758165 44.85073159 57.40514231 45.95456815 63 48 C63 52.95 63 57.9 63 63 C61.081875 63.70125 59.16375 64.4025 57.1875 65.125 C52.31374373 67.1451236 52.31374373 67.1451236 48.75 70.9375 C47.45024333 76.24483974 47.50810719 79.33475554 50.125 84.125 C50.71667969 85.08792969 50.71667969 85.08792969 51.3203125 86.0703125 C52 88 52 88 51.26953125 90.08203125 C49.50350015 92.75009669 47.31331348 94.79953108 45 97 C44.401875 97.598125 43.80375 98.19625 43.1875 98.8125 C42.795625 99.204375 42.40375 99.59625 42 100 C36.28782288 98.1402214 36.28782288 98.1402214 33.5625 96.8125 C29.49692028 95.52341375 25.94764927 96.36692089 21.95703125 97.6640625 C19.09162453 99.62008864 18.47573246 101.92447635 17.25 105.125 C16.5075 107.06375 15.765 109.0025 15 111 C10.05 111 5.1 111 0 111 C-0.70125 109.081875 -1.4025 107.16375 -2.125 105.1875 C-4.1451236 100.31374373 -4.1451236 100.31374373 -7.9375 96.75 C-13.24483974 95.45024333 -16.33475554 95.50810719 -21.125 98.125 C-22.08792969 98.71667969 -22.08792969 98.71667969 -23.0703125 99.3203125 C-25 100 -25 100 -26.9765625 99.375 C-29.35802391 97.75670962 -31.24808132 95.9436493 -33.25 93.875 C-33.95640625 93.15054688 -34.6628125 92.42609375 -35.390625 91.6796875 C-35.92171875 91.12539062 -36.4528125 90.57109375 -37 90 C-35.20754013 84.36655468 -35.20754013 84.36655468 -33.9140625 82.08203125 C-32.81940064 79.5886348 -32.90505757 78.11988127 -33.25 75.4375 C-33.33765625 74.67308594 -33.4253125 73.90867187 -33.515625 73.12109375 C-33.93264059 70.71587107 -33.93264059 70.71587107 -36 68 C-38.86408891 66.54395614 -38.86408891 66.54395614 -42.125 65.3125 C-44.06375 64.549375 -46.0025 63.78625 -48 63 C-48 58.05 -48 53.1 -48 48 C-44.6796875 46.60026042 -41.359375 45.20052083 -38.0390625 43.80078125 C-34.86937832 42.27063187 -34.86937832 42.27063187 -33.609375 39.46875 C-32.37746648 34.47794112 -32.6677696 31.34948374 -35.125 26.875 C-35.51945312 26.23304688 -35.91390625 25.59109375 -36.3203125 24.9296875 C-37 23 -37 23 -36.375 21.0234375 C-34.75670962 18.64197609 -32.9436493 16.75191868 -30.875 14.75 C-30.15054687 14.04359375 -29.42609375 13.3371875 -28.6796875 12.609375 C-28.12539063 12.07828125 -27.57109375 11.5471875 -27 11 C-21.36655468 12.79245987 -21.36655468 12.79245987 -19.08203125 14.0859375 C-16.5886348 15.18059936 -15.11988127 15.09494243 -12.4375 14.75 C-11.67308594 14.66234375 -10.90867187 14.5746875 -10.12109375 14.484375 C-7.71587107 14.06735941 -7.71587107 14.06735941 -5 12 C-3.54395614 9.13591109 -3.54395614 9.13591109 -2.3125 5.875 C-1.549375 3.93625 -0.78625 1.9975 0 0 Z " fill="#7B9FAF" transform="translate(359,130)"/>
<path d="M0 0 C1.00015677 -0.00596161 1.00015677 -0.00596161 2.02051872 -0.01204365 C4.25933234 -0.02168399 6.49751677 -0.00983872 8.73631287 0.00190735 C10.33940365 -0.00052003 11.94249292 -0.00423883 13.545578 -0.00915527 C17.90291427 -0.01857456 22.26002632 -0.00913059 26.61734509 0.00417686 C31.17148204 0.01547589 35.72560771 0.0113851 40.27975464 0.00942993 C47.92725803 0.00854655 55.57467284 0.01963721 63.22215271 0.03804016 C72.07280013 0.05921602 80.92331782 0.06271632 89.77398545 0.0564782 C98.27800055 0.05079055 106.78196982 0.05642263 115.28597832 0.06765175 C118.90995567 0.07230492 122.53390506 0.0731685 126.1578846 0.0710659 C130.42191533 0.06918711 134.68581337 0.07725524 138.94981384 0.0931263 C140.51798898 0.09738134 142.08617755 0.09821155 143.654356 0.0954361 C145.78843544 0.09223115 147.92211414 0.1012528 150.05615234 0.11352539 C151.85056936 0.1166047 151.85056936 0.1166047 153.68123722 0.11974621 C156.46458435 0.3742218 156.46458435 0.3742218 158.46458435 2.3742218 C158.65208435 5.4367218 158.65208435 5.4367218 158.46458435 8.3742218 C157.46458435 9.3742218 157.46458435 9.3742218 154.88960934 9.49726963 C153.15433404 9.49588694 153.15433404 9.49588694 151.38400269 9.49447632 C150.42104447 9.49575796 150.42104447 9.49575796 149.43863255 9.49706548 C147.27204381 9.49872202 145.10553128 9.49319613 142.93894958 9.48774719 C141.39202374 9.48746533 139.84509776 9.48762303 138.298172 9.4881897 C134.08554403 9.48847772 129.87294429 9.48258029 125.6603229 9.47561574 C121.26272647 9.46938292 116.86512946 9.46877846 112.4675293 9.46759033 C104.13417922 9.4644768 95.8008422 9.45626313 87.46749789 9.44624084 C76.21079284 9.43299533 64.95408426 9.42757997 53.69737339 9.42173862 C35.95310059 9.41232325 18.20885534 9.39240448 0.46458435 9.3742218 C0.46458435 56.2342218 0.46458435 103.0942218 0.46458435 151.3742218 C75.04458435 151.3742218 149.62458435 151.3742218 226.46458435 151.3742218 C226.46458435 126.9542218 226.46458435 102.5342218 226.46458435 77.3742218 C228.46458435 75.3742218 228.46458435 75.3742218 231.58958435 75.2492218 C232.53833435 75.2904718 233.48708435 75.3317218 234.46458435 75.3742218 C236.00717899 78.45941108 235.62071282 81.71056039 235.62571716 85.09687805 C235.63068207 85.89375031 235.63564697 86.69062256 235.64076233 87.51164246 C235.65539384 90.15334427 235.66218657 92.79498609 235.66770935 95.4367218 C235.67345873 97.26753237 235.67921648 99.09834292 235.6849823 100.92915344 C235.69549424 104.7692442 235.70133606 108.60931399 235.70481873 112.44941711 C235.7103126 117.37945394 235.73435874 122.30921584 235.76279068 127.23916626 C235.78137435 131.02059246 235.78662031 134.80195178 235.7881546 138.5834198 C235.7911899 140.40157072 235.79924776 142.21972022 235.81233978 144.03782654 C235.82931609 146.57595543 235.82754131 149.11340359 235.82102966 151.65156555 C235.83024445 152.40799347 235.83945923 153.16442139 235.84895325 153.94377136 C235.83207703 156.03413391 235.83207703 156.03413391 235.46458435 159.3742218 C232.40499821 161.4139459 231.81083893 161.62457531 228.37126923 161.6286974 C227.11628734 161.63744569 227.11628734 161.63744569 225.83595228 161.64637071 C224.45722464 161.64070172 224.45722464 161.64070172 223.05064392 161.63491821 C222.07422833 161.63874376 221.09781274 161.64256931 220.0918088 161.64651078 C216.80520597 161.65686689 213.518777 161.65284368 210.23216248 161.64888 C207.88193601 161.653225 205.53171096 161.65840743 203.18148804 161.66436768 C196.7870242 161.67779089 190.39261934 161.67833272 183.99814415 161.67580438 C177.99363565 161.67387648 171.98913235 161.68080617 165.98462707 161.68623783 C153.3673563 161.69711925 140.75011225 161.6949479 128.13283998 161.68885299 C116.58257423 161.683682 105.03239277 161.69494298 93.4821437 161.71395121 C81.62932617 161.73330825 69.77654856 161.74158945 57.92371511 161.73782796 C51.2664174 161.73591282 44.60918709 161.73869672 37.9519043 161.7525425 C31.6942029 161.76506962 25.43667089 161.7632254 19.17897224 161.75013161 C16.87749742 161.74775519 14.57601087 161.75053831 12.27454948 161.75875473 C9.14234149 161.76913388 6.01071127 161.76119287 2.87852478 161.7484436 C1.95937302 161.75581789 1.04022126 161.76319217 0.09321642 161.77078992 C-0.74343817 161.76358338 -1.58009276 161.75637684 -2.44210052 161.74895191 C-3.16536042 161.74900693 -3.88862031 161.74906194 -4.63379717 161.74911863 C-7.11785376 161.25939635 -8.00861211 160.36187061 -9.53541565 158.3742218 C-9.91293907 155.59276581 -9.91293907 155.59276581 -9.91636658 152.14924622 C-9.92482605 150.84526382 -9.93328552 149.54128143 -9.94200134 148.19778442 C-9.93616821 146.74943418 -9.93002369 145.30108517 -9.92359924 143.85273743 C-9.92766355 142.33008446 -9.93300463 140.80743445 -9.93952942 139.28479004 C-9.95322572 135.14639517 -9.94789491 131.00822424 -9.93839216 126.86982536 C-9.93080751 122.54303754 -9.93783784 118.21626915 -9.94255066 113.88948059 C-9.9480117 106.62280324 -9.94080747 99.35621731 -9.92652893 92.08955383 C-9.91020172 83.68309342 -9.91548999 75.27685126 -9.93200815 66.87039614 C-9.9456131 59.65843984 -9.94754754 52.44654932 -9.93969214 45.23458433 C-9.93501015 40.92471456 -9.93440514 36.61494744 -9.94430161 32.30508423 C-9.95295463 28.25358147 -9.94698007 24.20236067 -9.92961884 20.15088844 C-9.92564505 18.66214784 -9.92680325 17.17338359 -9.93340683 15.68465233 C-9.94157638 13.65617585 -9.92952597 11.62764764 -9.91636658 9.59919739 C-9.9152355 8.46283592 -9.91410442 7.32647446 -9.91293907 6.1556778 C-9.53541565 3.3742218 -9.53541565 3.3742218 -8.42006969 1.50854969 C-5.59820975 -0.18985986 -3.27854349 -0.00045957 0 0 Z " fill="#423B42" transform="translate(135.53541564941406,180.6257781982422)"/>
<path d="M0 0 C103.29 0 206.58 0 313 0 C313 12 313 12 310 17 C306.70931519 19.19378987 305.74708669 19.25190725 301.92837715 19.26006222 C300.87350204 19.26712781 299.81862692 19.2741934 298.73178589 19.2814731 C297.56886863 19.27905802 296.40595137 19.27664293 295.20779419 19.27415466 C293.97552593 19.27939134 292.74325767 19.28462802 291.47364795 19.29002339 C288.04673834 19.30245977 284.62003363 19.30586614 281.19311547 19.30542648 C277.49976736 19.30707212 273.80645685 19.32013383 270.11312866 19.33161926 C262.03471639 19.35448732 253.95633036 19.36239168 245.87789011 19.36744571 C240.83562102 19.37070037 235.79335958 19.37722141 230.75109482 19.3844471 C216.79571083 19.40401471 202.84033397 19.4204182 188.88493538 19.42332363 C187.99157995 19.4235112 187.09822453 19.42369877 186.17779773 19.42389202 C184.36668261 19.42425828 182.55556749 19.42462198 180.74445237 19.42498314 C179.39585812 19.42525735 179.39585812 19.42525735 178.02001953 19.42553711 C177.11986193 19.42571766 176.21970432 19.42589821 175.29226921 19.42608423 C160.70082135 19.42962718 146.10952094 19.45665637 131.51812424 19.494035 C116.54420287 19.53208722 101.57035474 19.55148088 86.59638393 19.55178314 C78.18622331 19.55236838 69.77623862 19.56090302 61.3661232 19.58978081 C54.20590904 19.61425344 47.04593498 19.62160557 39.88569035 19.60653328 C36.2312935 19.59934753 32.57737115 19.60029244 28.92302704 19.62294388 C24.96386333 19.64725003 21.00538206 19.6329447 17.0461731 19.61473083 C15.88771728 19.6279308 14.72926146 19.64113077 13.53570092 19.65473074 C8.98663793 19.60671802 5.82957825 19.42421951 1.74711418 17.33657932 C0 14 0 14 0 0 Z " fill="#454D6D" transform="translate(90,363)"/>
<path d="M0 0 C0.77730469 -0.00322266 1.55460937 -0.00644531 2.35546875 -0.00976562 C7.29424741 0.03588695 11.47586403 0.60941035 16.125 2.3125 C19.19078572 6.0352398 20.52108007 10.80624876 22.125 15.3125 C26.21826207 14.04154849 26.21826207 14.04154849 30.0625 12.1875 C33.26125464 10.83045257 35.67567839 10.97475393 39.125 11.3125 C41.48405884 12.93082031 43.21144913 14.32116116 45.1875 16.3125 C45.96130005 17.06200928 45.96130005 17.06200928 46.75073242 17.82666016 C57.00644943 27.94148858 57.00644943 27.94148858 57.25 32.8125 C55.91663374 35.77553614 54.50280274 38.68050416 52.96484375 41.54296875 C51.98207599 43.28718448 51.98207599 43.28718448 52.125 45.3125 C52.96804688 45.65023437 53.81109375 45.98796875 54.6796875 46.3359375 C56.32324219 47.00496094 56.32324219 47.00496094 58 47.6875 C59.09054687 48.12835938 60.18109375 48.56921875 61.3046875 49.0234375 C64.125 50.3125 64.125 50.3125 66.125 52.3125 C67.20216512 56.92990206 67.30803427 61.52971851 67.3125 66.25 C67.32474609 66.92740234 67.33699219 67.60480469 67.34960938 68.30273438 C67.36305897 72.97871056 67.01959296 77.01668197 65.125 81.3125 C62.0859375 83.08984375 62.0859375 83.08984375 58.5 84.25 C57.31148438 84.65089844 56.12296875 85.05179687 54.8984375 85.46484375 C53.98320312 85.74457031 53.06796875 86.02429688 52.125 86.3125 C53.15534656 89.54751824 54.16872324 92.39184958 55.8125 95.375 C57.34809613 98.8118104 57.24460869 99.79072618 56.125 103.3125 C53.46435992 106.95306332 50.28346528 110.10066587 47.125 113.3125 C45.94357422 114.53066406 45.94357422 114.53066406 44.73828125 115.7734375 C39.09653603 121.23319094 39.09653603 121.23319094 35.0625 121.5625 C31.91569174 120.22343265 28.86296574 118.7880201 25.859375 117.15234375 C24.14615914 116.16722472 24.14615914 116.16722472 22.125 116.3125 C21.65320313 117.68535156 21.65320313 117.68535156 21.171875 119.0859375 C20.74390625 120.27445312 20.3159375 121.46296875 19.875 122.6875 C19.45734375 123.87085938 19.0396875 125.05421875 18.609375 126.2734375 C16.97203659 129.62567245 16.46746974 130.04271401 13.125 131.3125 C11.0378418 131.57128906 11.0378418 131.57128906 8.82421875 131.578125 C8.01146484 131.58070313 7.19871094 131.58328125 6.36132812 131.5859375 C5.52021484 131.57820312 4.67910156 131.57046875 3.8125 131.5625 C2.98298828 131.57023438 2.15347656 131.57796875 1.29882812 131.5859375 C-3.79626193 131.56985197 -8.08432096 131.09420898 -12.875 129.3125 C-15.94078572 125.5897602 -17.27108007 120.81875124 -18.875 116.3125 C-22.11024795 117.31388627 -24.9627657 118.36086069 -27.9375 120 C-31.37619209 121.53643689 -32.35160995 121.43620413 -35.875 120.3125 C-39.5089851 117.64251416 -42.66206346 114.47055719 -45.875 111.3125 C-46.60203125 110.60996094 -47.3290625 109.90742188 -48.078125 109.18359375 C-51.09834188 106.04674248 -52.71076959 104.14858208 -53.5625 99.8125 C-52.82894899 96.07805848 -51.61166152 93.30194693 -49.75 90.01171875 C-48.72239675 88.33469565 -48.72239675 88.33469565 -48.875 86.3125 C-49.63425781 86.05855469 -50.39351563 85.80460937 -51.17578125 85.54296875 C-52.66658203 85.02669922 -52.66658203 85.02669922 -54.1875 84.5 C-55.17363281 84.16355469 -56.15976562 83.82710938 -57.17578125 83.48046875 C-59.83037143 82.33181106 -61.19913479 81.63918664 -62.875 79.3125 C-64.36360829 74.67358113 -64.0954159 69.6421036 -64.125 64.8125 C-64.145625 63.97074219 -64.16625 63.12898438 -64.1875 62.26171875 C-64.21740442 57.514392 -64.19626627 54.00818877 -60.875 50.3125 C-57.95703125 48.73046875 -57.95703125 48.73046875 -54.6875 47.5 C-53.05748047 46.87158203 -53.05748047 46.87158203 -51.39453125 46.23046875 C-50.56308594 45.92753906 -49.73164063 45.62460938 -48.875 45.3125 C-49.90534656 42.07748176 -50.91872324 39.23315042 -52.5625 36.25 C-54.1156479 32.77390709 -54.07244932 31.86871801 -52.875 28.3125 C-51.20010866 26.16681297 -49.56391045 24.26060466 -47.6875 22.3125 C-47.21763672 21.80460937 -46.74777344 21.29671875 -46.26367188 20.7734375 C-37.65097701 11.60849617 -37.65097701 11.60849617 -32.5 10.75 C-28.61740303 11.35247194 -25.95954584 12.52203006 -22.57421875 14.4375 C-20.89719565 15.46510325 -20.89719565 15.46510325 -18.875 15.3125 C-18.57207031 14.48105469 -18.26914062 13.64960938 -17.95703125 12.79296875 C-17.53808594 11.70628906 -17.11914062 10.61960938 -16.6875 9.5 C-16.28144531 8.42105469 -15.87539063 7.34210938 -15.45703125 6.23046875 C-11.90394371 -0.32300382 -6.72542305 -0.13804234 0 0 Z M-5.875 10.3125 C-6.25011719 11.22773438 -6.62523437 12.14296875 -7.01171875 13.0859375 C-7.77935547 14.86871094 -7.77935547 14.86871094 -8.5625 16.6875 C-9.06136719 17.87085938 -9.56023437 19.05421875 -10.07421875 20.2734375 C-11.875 23.3125 -11.875 23.3125 -14.40625 24.703125 C-19.39705888 25.93503352 -22.52551626 25.6447304 -27 23.1875 C-27.64195312 22.79304688 -28.28390625 22.39859375 -28.9453125 21.9921875 C-30.87576432 21.09491313 -30.87576432 21.09491313 -32.8515625 21.9375 C-35.23302391 23.55579038 -37.12308132 25.3688507 -39.125 27.4375 C-39.83140625 28.16195312 -40.5378125 28.88640625 -41.265625 29.6328125 C-41.79671875 30.18710938 -42.3278125 30.74140625 -42.875 31.3125 C-41.58782249 35.42827983 -41.58782249 35.42827983 -39.75 39.3125 C-38.07567715 43.13952366 -38.65433114 46.4114355 -39.625 50.375 C-43.29258165 55.16323159 -48.28014231 56.26706815 -53.875 58.3125 C-53.875 63.2625 -53.875 68.2125 -53.875 73.3125 C-50.719375 74.6428125 -50.719375 74.6428125 -47.5 76 C-41.24650508 78.63627727 -41.24650508 78.63627727 -39.484375 81.84375 C-38.25246648 86.83455888 -38.5427696 89.96301626 -41 94.4375 C-41.39445312 95.07945312 -41.78890625 95.72140625 -42.1953125 96.3828125 C-43.09258687 98.31326432 -43.09258687 98.31326432 -42.25 100.2890625 C-40.63170962 102.67052391 -38.8186493 104.56058132 -36.75 106.5625 C-35.66332031 107.62210938 -35.66332031 107.62210938 -34.5546875 108.703125 C-33.72324219 109.49976563 -33.72324219 109.49976563 -32.875 110.3125 C-28.75922017 109.02532249 -28.75922017 109.02532249 -24.875 107.1875 C-21.04797634 105.51317715 -17.7760645 106.09183114 -13.8125 107.0625 C-9.02426841 110.73008165 -7.92043185 115.71764231 -5.875 121.3125 C-0.925 121.3125 4.025 121.3125 9.125 121.3125 C9.82625 119.394375 10.5275 117.47625 11.25 115.5 C13.71187778 109.65217827 13.71187778 109.65217827 16.9375 107 C22.38893387 105.82420054 26.42846321 106.4316059 31.375 109 C33.95065063 110.58450364 33.95065063 110.58450364 36.1875 109.8125 C38.73151104 107.84294307 40.90875681 105.64239669 43.125 103.3125 C44.125 102.3125 45.125 101.3125 46.125 100.3125 C44.83782249 96.19672017 44.83782249 96.19672017 43 92.3125 C41.32567715 88.48547634 41.90433114 85.2135645 42.875 81.25 C46.54258165 76.46176841 51.53014231 75.35793185 57.125 73.3125 C57.125 68.3625 57.125 63.4125 57.125 58.3125 C55.206875 57.61125 53.28875 56.91 51.3125 56.1875 C45.44927276 53.7358561 45.44927276 53.7358561 42.875 50.375 C41.57524333 45.06766026 41.63310719 41.97774446 44.25 37.1875 C44.64445312 36.54554688 45.03890625 35.90359375 45.4453125 35.2421875 C46.34258687 33.31173568 46.34258687 33.31173568 45.5 31.3359375 C43.88170962 28.95447609 42.0686493 27.06441868 40 25.0625 C39.27554688 24.35609375 38.55109375 23.6496875 37.8046875 22.921875 C37.25039063 22.39078125 36.69609375 21.8596875 36.125 21.3125 C32.04985074 22.57970292 32.04985074 22.57970292 28.20703125 24.3984375 C25.7136348 25.49309936 24.24488127 25.40744243 21.5625 25.0625 C20.79808594 24.97484375 20.03367187 24.8871875 19.24609375 24.796875 C17.125 24.3125 17.125 24.3125 14.125 22.3125 C12.9921875 19.74609375 12.9921875 19.74609375 12 16.75 C11.04127205 13.25411203 11.04127205 13.25411203 9.125 10.3125 C6.59450598 10.23936433 4.09195163 10.22002473 1.5625 10.25 C0.85158203 10.25451172 0.14066406 10.25902344 -0.59179688 10.26367188 C-2.35290013 10.27549136 -4.11396036 10.29342737 -5.875 10.3125 Z " fill="#443D43" transform="translate(364.875,119.6875)"/>
<path d="M0 0 C2.5625 0.3125 2.5625 0.3125 4.20137024 1.46076965 C6.13866457 4.0963352 5.92318454 6.00183265 5.90307617 9.25268555 C5.90284958 10.47372482 5.90262299 11.6947641 5.90238953 12.95280457 C5.88690567 14.27162125 5.87142181 15.59043793 5.85546875 16.94921875 C5.84987243 18.31256138 5.8456025 19.67591004 5.84260559 21.03926086 C5.83115949 24.62493592 5.80169486 28.21024554 5.76849365 31.79577637 C5.73778739 35.4555975 5.7240991 39.11547777 5.70898438 42.77539062 C5.67682449 49.95459356 5.62563153 57.13349554 5.5625 64.3125 C6.5525 64.3125 7.5425 64.3125 8.5625 64.3125 C8.53929687 63.32507813 8.51609375 62.33765625 8.4921875 61.3203125 C8.47414063 60.03898437 8.45609375 58.75765625 8.4375 57.4375 C8.41429687 56.16132813 8.39109375 54.88515625 8.3671875 53.5703125 C8.5625 50.3125 8.5625 50.3125 10.5625 48.3125 C13.29259061 47.96248838 14.88919706 47.8625677 17.2109375 49.4140625 C19.22633169 52.24493411 18.85166594 54.57724653 18.75 58 C18.72292969 59.17949219 18.69585937 60.35898437 18.66796875 61.57421875 C18.63316406 62.47785156 18.59835937 63.38148438 18.5625 64.3125 C19.2225 64.3125 19.8825 64.3125 20.5625 64.3125 C20.54678955 63.51030029 20.5310791 62.70810059 20.51489258 61.8815918 C20.45261417 58.25446596 20.41353136 54.62745251 20.375 51 C20.34986328 49.73736328 20.32472656 48.47472656 20.29882812 47.17382812 C20.28916016 45.96533203 20.27949219 44.75683594 20.26953125 43.51171875 C20.2538208 42.39627686 20.23811035 41.28083496 20.22192383 40.1315918 C20.5625 37.3125 20.5625 37.3125 21.88549805 35.41333008 C23.5625 34.3125 23.5625 34.3125 26.6875 34.5 C27.63625 34.768125 28.585 35.03625 29.5625 35.3125 C30.97162096 38.13074192 30.67433553 40.48501282 30.66015625 43.6328125 C30.65693359 44.88964844 30.65371094 46.14648438 30.65039062 47.44140625 C30.63782227 49.41947266 30.63782227 49.41947266 30.625 51.4375 C30.61998489 52.77734211 30.61542201 54.117186 30.61132812 55.45703125 C30.59951086 58.74223206 30.58303617 62.02734397 30.5625 65.3125 C31.5525 65.3125 32.5425 65.3125 33.5625 65.3125 C33.54678955 63.37431396 33.54678955 63.37431396 33.53076172 61.39697266 C33.49463281 56.61493691 33.47162549 51.83291327 33.45263672 47.05078125 C33.44256288 44.97882053 33.42890334 42.90687407 33.41162109 40.83496094 C33.38743336 37.86129236 33.37603092 34.8878113 33.3671875 31.9140625 C33.35170364 30.51868759 33.35170364 30.51868759 33.33590698 29.09512329 C33.33568039 27.80401138 33.33568039 27.80401138 33.33544922 26.48681641 C33.331008 25.72736725 33.32656677 24.96791809 33.32199097 24.18545532 C33.5625 22.3125 33.5625 22.3125 35.5625 20.3125 C38.0625 20.0625 38.0625 20.0625 40.5625 20.3125 C42.5625 22.3125 42.5625 22.3125 42.80300903 24.18545532 C42.7963472 25.32462906 42.7963472 25.32462906 42.78955078 26.48681641 C42.78939972 27.34755768 42.78924866 28.20829895 42.78909302 29.09512329 C42.77877045 30.02537323 42.76844788 30.95562317 42.7578125 31.9140625 C42.7549826 32.86566254 42.75215271 33.81726257 42.74923706 34.79769897 C42.73801989 37.84442592 42.71291263 40.89086154 42.6875 43.9375 C42.67747218 45.99999576 42.66834599 48.06249612 42.66015625 50.125 C42.63807554 55.18761267 42.6035353 60.2500069 42.5625 65.3125 C43.5525 65.3125 44.5425 65.3125 45.5625 65.3125 C45.51029297 63.41564453 45.51029297 63.41564453 45.45703125 61.48046875 C45.42889323 59.82032577 45.40159309 58.16016844 45.375 56.5 C45.34986328 55.66662109 45.32472656 54.83324219 45.29882812 53.97460938 C45.28916016 53.17216797 45.27949219 52.36972656 45.26953125 51.54296875 C45.2538208 50.80457764 45.23811035 50.06618652 45.22192383 49.30541992 C45.65983764 46.74291784 46.4991345 45.85058941 48.5625 44.3125 C51.90442692 44.55703124 53.16793557 44.91793557 55.5625 47.3125 C55.70767744 50.2218558 55.74880796 53.032446 55.6875 55.9375 C55.67847656 56.73929687 55.66945313 57.54109375 55.66015625 58.3671875 C55.63656223 60.34908523 55.60069065 62.33082981 55.5625 64.3125 C56.2225 64.3125 56.8825 64.3125 57.5625 64.3125 C57.54678955 63.39436523 57.5310791 62.47623047 57.51489258 61.53027344 C57.4636913 58.11599051 57.42611521 54.70211696 57.39770508 51.28759766 C57.38264077 49.81129509 57.36218518 48.33503712 57.33618164 46.85888672 C57.29969261 44.73393742 57.28275067 42.60958099 57.26953125 40.484375 C57.2538208 39.2065918 57.23811035 37.92880859 57.22192383 36.61230469 C57.5797946 33.1449345 58.19148844 31.79563552 60.5625 29.3125 C63.5 29.6875 63.5 29.6875 66.5625 30.3125 C68.06856515 33.32463029 67.68410331 36.42532622 67.66015625 39.7265625 C67.6587413 40.45620209 67.65732635 41.18584167 67.65586853 41.93759155 C67.65026531 44.27093585 67.63771235 46.60418464 67.625 48.9375 C67.61998541 50.51822778 67.61542243 52.09895707 67.61132812 53.6796875 C67.60029484 57.55732854 67.58302811 61.43489807 67.5625 65.3125 C68.5525 65.3125 69.5425 65.3125 70.5625 65.3125 C70.52769531 64.03632813 70.49289062 62.76015625 70.45703125 61.4453125 C70.42889769 59.77605479 70.40159707 58.1067829 70.375 56.4375 C70.34986328 55.59574219 70.32472656 54.75398438 70.29882812 53.88671875 C70.28916016 53.08105469 70.27949219 52.27539062 70.26953125 51.4453125 C70.2538208 50.70168457 70.23811035 49.95805664 70.22192383 49.19189453 C70.33431396 48.57169434 70.4467041 47.95149414 70.5625 47.3125 C73.5625 45.3125 73.5625 45.3125 76.125 45.5625 C78.5625 46.3125 78.5625 46.3125 80.5625 48.3125 C80.70767744 51.2218558 80.74880796 54.032446 80.6875 56.9375 C80.67847656 57.73929687 80.66945313 58.54109375 80.66015625 59.3671875 C80.63656223 61.34908523 80.60069065 63.33082981 80.5625 65.3125 C81.34625 65.27125 82.13 65.23 82.9375 65.1875 C85.5625 65.3125 85.5625 65.3125 87.5625 67.3125 C87.90526051 69.98603197 87.98676086 71.62383408 86.5546875 73.94839478 C83.4089234 76.10238543 80.05670937 75.72903264 76.375 75.70068359 C75.1233606 75.70856903 75.1233606 75.70856903 73.84643555 75.71661377 C71.08493395 75.72983049 68.32400758 75.72106986 65.5625 75.7109375 C63.64583221 75.71295776 61.72916516 75.71586879 59.8125 75.71963501 C55.79419644 75.72406063 51.77609284 75.71761965 47.7578125 75.70361328 C42.60253992 75.68652128 37.44773586 75.69636119 32.29248047 75.71433067 C28.33427387 75.72516208 24.37617867 75.72172512 20.41796875 75.7139473 C18.51692652 75.71194351 16.61587424 75.7144108 14.71484375 75.72138596 C12.0596226 75.72898987 9.40516422 75.71741136 6.75 75.70068359 C5.96133545 75.70675629 5.1726709 75.71282898 4.36010742 75.71908569 C1.46324451 75.68520992 -0.85953672 75.63319944 -3.4259491 74.20915222 C-4.96949235 71.31501736 -4.81148471 68.8440969 -4.80981445 65.57788086 C-4.81346512 64.89790543 -4.81711578 64.21792999 -4.82087708 63.51734924 C-4.82898128 61.27042647 -4.81537575 59.0242251 -4.80078125 56.77734375 C-4.80026268 55.21700542 -4.80078025 53.65666642 -4.80229187 52.09632874 C-4.80220216 48.82705934 -4.79177367 45.55803659 -4.77368164 42.28881836 C-4.75097557 38.09308255 -4.75045379 33.8977066 -4.75719929 29.70192623 C-4.76053632 26.4806446 -4.75391454 23.25944541 -4.74407005 20.0381794 C-4.74021458 18.49078363 -4.73907127 16.94337869 -4.7406559 15.39597893 C-4.74102569 13.23638213 -4.7284319 11.07725154 -4.7121582 8.91772461 C-4.70755081 7.68767197 -4.70294342 6.45761932 -4.69819641 5.19029236 C-4.36676625 1.5316797 -3.70047827 0.47442029 0 0 Z " fill="#474149" transform="translate(267.4375,246.6875)"/>
<path d="M0 0 C6.91618831 3.89721722 11.39166916 9.28473052 13.6875 16.9375 C14.80500566 24.99595752 13.34151692 31.25541021 8.6875 37.9375 C4.22269128 42.96438678 -1.09094025 46.35207569 -7.84765625 47.2890625 C-15.79879268 47.71401775 -22.17395792 45.6132937 -28.1640625 40.29296875 C-33.70125969 34.25115014 -35.98095957 27.95711174 -35.72265625 19.78125 C-34.66915889 12.47700161 -30.96684198 6.55226978 -25.1171875 2.12109375 C-17.14859796 -3.10505913 -8.70463953 -3.97214726 0 0 Z " fill="#FCFCFC" transform="translate(377.3125,163.0625)"/>
<path d="M0 0 C7.31205453 6.22476017 12.24024878 14.33733517 13.515625 23.890625 C13.98526936 34.24751907 10.95123091 42.70427672 4.4140625 50.7265625 C0.24727368 55.08275082 -4.36017427 57.5394254 -9.8984375 59.7890625 C-10.69765625 60.15257812 -11.496875 60.51609375 -12.3203125 60.890625 C-20.68980644 63.80726683 -29.37340966 61.99854127 -37.171875 58.3359375 C-45.9714168 53.34364731 -51.48548911 46.45601399 -54.7109375 36.9140625 C-57.21891799 27.47310146 -56.21085198 19.5550717 -51.8984375 10.7890625 C-46.86772977 2.2177208 -39.46596084 -2.964393 -30.3359375 -6.6484375 C-19.14762247 -8.47925269 -9.29988703 -6.6709437 0 0 Z M-41.71484375 12.984375 C-45.9045668 19.3726656 -46.97933669 25.2948281 -45.8984375 32.7890625 C-43.13919118 41.32433112 -38.25770163 46.27410242 -30.6484375 50.6640625 C-23.59499581 52.78009501 -17.35037521 52.81334658 -10.5859375 49.7265625 C-3.66974919 45.82934528 0.80573166 40.44183198 3.1015625 32.7890625 C4.21906816 24.73060498 2.75557942 18.47115229 -1.8984375 11.7890625 C-6.36324622 6.76217572 -11.67687775 3.37448681 -18.43359375 2.4375 C-27.9712719 1.92775068 -35.89911121 5.30694903 -41.71484375 12.984375 Z " fill="#443E45" transform="translate(387.8984375,158.2109375)"/>
<path d="M0 0 C5.65714286 1.8 5.65714286 1.8 7.875 3.09375 C10.57998621 4.24734706 12.35381564 4.00607689 15.25 3.625 C16.58804688 3.45871094 16.58804688 3.45871094 17.953125 3.2890625 C18.62859375 3.19367188 19.3040625 3.09828125 20 3 C20 3.66 20 4.32 20 5 C19.34 5 18.68 5 18 5 C17.62294922 5.76570312 17.62294922 5.76570312 17.23828125 6.546875 C15.59485649 9.80261869 13.89649791 13.02836732 12.1875 16.25 C11.83220215 16.92095703 11.4769043 17.59191406 11.11083984 18.28320312 C9.24053807 21.78439446 7.31214568 25.18337312 5.125 28.5 C0.58850176 35.61787266 -0.02692554 43.37348359 1.46484375 51.546875 C3.37147779 58.81239171 6.9357033 64.9357033 12.25 70.25 C14 72 14 72 14.85546875 74.3046875 C19.34521376 84.87780716 31.01441766 93.14948004 41.34765625 97.37109375 C41.89292969 97.57863281 42.43820312 97.78617187 43 98 C42.67 98.66 42.34 99.32 42 100 C37.05 100 32.1 100 27 100 C26.29875 98.081875 25.5975 96.16375 24.875 94.1875 C22.8548764 89.31374373 22.8548764 89.31374373 19.0625 85.75 C13.75516026 84.45024333 10.66524446 84.50810719 5.875 87.125 C4.91207031 87.71667969 4.91207031 87.71667969 3.9296875 88.3203125 C2 89 2 89 0.0234375 88.375 C-2.35802391 86.75670962 -4.24808132 84.9436493 -6.25 82.875 C-6.95640625 82.15054688 -7.6628125 81.42609375 -8.390625 80.6796875 C-8.92171875 80.12539062 -9.4528125 79.57109375 -10 79 C-8.20754013 73.36655468 -8.20754013 73.36655468 -6.9140625 71.08203125 C-5.81940064 68.5886348 -5.90505757 67.11988127 -6.25 64.4375 C-6.38148438 63.29087891 -6.38148438 63.29087891 -6.515625 62.12109375 C-6.93264059 59.71587107 -6.93264059 59.71587107 -9 57 C-11.86408891 55.54395614 -11.86408891 55.54395614 -15.125 54.3125 C-17.06375 53.549375 -19.0025 52.78625 -21 52 C-21 47.05 -21 42.1 -21 37 C-17.6796875 35.60026042 -14.359375 34.20052083 -11.0390625 32.80078125 C-7.86937832 31.27063187 -7.86937832 31.27063187 -6.609375 28.46875 C-5.37746648 23.47794112 -5.6677696 20.34948374 -8.125 15.875 C-8.71667969 14.91207031 -8.71667969 14.91207031 -9.3203125 13.9296875 C-10 12 -10 12 -9.375 10.0234375 C-7.75670962 7.64197609 -5.9436493 5.75191868 -3.875 3.75 C-3.15054687 3.04359375 -2.42609375 2.3371875 -1.6796875 1.609375 C-1.12539063 1.07828125 -0.57109375 0.5471875 0 0 Z " fill="#668B96" transform="translate(332,141)"/>
<path d="M0 0 C1.29474243 -0.00630432 2.58948486 -0.01260864 3.92346191 -0.019104 C5.34285619 -0.01552433 6.76224924 -0.0114224 8.18164062 -0.00683594 C9.63130763 -0.00818263 11.08097419 -0.0101232 12.53063965 -0.01263428 C15.57043758 -0.01558536 18.61011805 -0.0112885 21.64990234 -0.00195312 C25.55083311 0.0094415 29.4514887 0.00288193 33.35240936 -0.00909805 C36.346355 -0.01631715 39.34023515 -0.01402852 42.33418274 -0.00884247 C43.77273084 -0.0075061 45.21128484 -0.00915324 46.64982605 -0.01380157 C48.65847666 -0.01886734 50.66714806 -0.00978038 52.67578125 0 C53.82002563 0.00159119 54.96427002 0.00318237 56.14318848 0.00482178 C58.83789062 0.25878906 58.83789062 0.25878906 60.83789062 2.25878906 C61.15039062 5.25878906 61.15039062 5.25878906 60.83789062 8.25878906 C57.32966605 10.59760545 55.91088741 10.51159513 51.76171875 10.51757812 C49.88462219 10.52703461 49.88462219 10.52703461 47.96960449 10.53668213 C46.60278177 10.53310233 45.23596034 10.52900037 43.86914062 10.52441406 C42.46813896 10.52576135 41.06713776 10.52770241 39.6661377 10.5302124 C36.73066759 10.5331607 33.79531923 10.52887558 30.85986328 10.51953125 C27.09693968 10.50813678 23.33430138 10.51469784 19.57138824 10.52667618 C16.67862803 10.53390279 13.78593547 10.53160319 10.89317322 10.52642059 C9.50569119 10.52508631 8.11820301 10.52672409 6.73072815 10.5313797 C4.79184079 10.53645777 2.8529319 10.52734581 0.9140625 10.51757812 C-0.18941528 10.51598694 -1.29289307 10.51439575 -2.42980957 10.51275635 C-5.16210938 10.25878906 -5.16210938 10.25878906 -8.16210938 8.25878906 C-8.47460938 5.25878906 -8.47460938 5.25878906 -8.16210938 2.25878906 C-5.41199338 -0.49132693 -3.85024996 0.00535416 0 0 Z " fill="#453F46" transform="translate(174.162109375,293.7412109375)"/>
<path d="M0 0 C1.25139771 -0.00630432 2.50279541 -0.01260864 3.79211426 -0.019104 C5.15893698 -0.01552421 6.52575841 -0.01142224 7.89257812 -0.00683594 C9.29357979 -0.00818322 10.69458099 -0.01012428 12.09558105 -0.01263428 C15.03105116 -0.01558257 17.96639952 -0.01129745 20.90185547 -0.00195312 C24.66477907 0.00944135 28.42741737 0.00288029 32.19033051 -0.00909805 C35.08309072 -0.01632466 37.97578328 -0.01402506 40.86854553 -0.00884247 C42.25602756 -0.00750819 43.64351574 -0.00914596 45.0309906 -0.01380157 C46.96987796 -0.01887964 48.90878685 -0.00976768 50.84765625 0 C51.95113403 0.00159119 53.05461182 0.00318237 54.19152832 0.00482178 C56.92382812 0.25878906 56.92382812 0.25878906 59.92382812 2.25878906 C60.23632812 5.25878906 60.23632812 5.25878906 59.92382812 8.25878906 C57.17371213 11.00890506 55.61196871 10.51222397 51.76171875 10.51757812 C50.46697632 10.52388245 49.17223389 10.53018677 47.83825684 10.53668213 C46.41886256 10.53310246 44.99946951 10.52900052 43.58007812 10.52441406 C42.13041112 10.52576076 40.68074456 10.52770132 39.2310791 10.5302124 C36.19128117 10.53316348 33.1516007 10.52886663 30.11181641 10.51953125 C26.21088564 10.50813662 22.31023005 10.51469619 18.40930939 10.52667618 C15.41536375 10.53389528 12.4214836 10.53160664 9.42753601 10.52642059 C7.98898791 10.52508423 6.55043391 10.52673136 5.1118927 10.5313797 C3.10324209 10.53644546 1.09457069 10.5273585 -0.9140625 10.51757812 C-2.05830688 10.51598694 -3.20255127 10.51439575 -4.38146973 10.51275635 C-7.07617188 10.25878906 -7.07617188 10.25878906 -9.07617188 8.25878906 C-9.38867188 5.25878906 -9.38867188 5.25878906 -9.07617188 2.25878906 C-5.5679473 -0.08002732 -4.14916866 0.00598299 0 0 Z " fill="#453F46" transform="translate(175.076171875,275.7412109375)"/>
<path d="M0 0 C1.29474243 -0.00630432 2.58948486 -0.01260864 3.92346191 -0.019104 C5.34285619 -0.01552433 6.76224924 -0.0114224 8.18164062 -0.00683594 C9.63130763 -0.00818263 11.08097419 -0.0101232 12.53063965 -0.01263428 C15.57043758 -0.01558536 18.61011805 -0.0112885 21.64990234 -0.00195312 C25.55083311 0.0094415 29.4514887 0.00288193 33.35240936 -0.00909805 C36.346355 -0.01631715 39.34023515 -0.01402852 42.33418274 -0.00884247 C43.77273084 -0.0075061 45.21128484 -0.00915324 46.64982605 -0.01380157 C48.65847666 -0.01886734 50.66714806 -0.00978038 52.67578125 0 C53.82002563 0.00159119 54.96427002 0.00318237 56.14318848 0.00482178 C58.83789062 0.25878906 58.83789062 0.25878906 60.83789062 2.25878906 C61.15039062 5.25878906 61.15039062 5.25878906 60.83789062 8.25878906 C57.33360636 10.59497857 55.90666188 10.51614073 51.76171875 10.53344727 C49.88462219 10.54774529 49.88462219 10.54774529 47.96960449 10.56233215 C46.60278292 10.56207075 45.23596133 10.56113383 43.86914062 10.55957031 C42.46813835 10.5634572 41.06713726 10.56779186 39.6661377 10.57255554 C36.73067401 10.58001595 33.79533061 10.57972751 30.85986328 10.57446289 C27.09684734 10.56866377 23.33432289 10.58561019 19.57138824 10.60880756 C16.67862059 10.62353275 13.78597171 10.62441838 10.89317322 10.62129784 C9.50568161 10.62181151 8.11818344 10.62705801 6.73072815 10.63710976 C4.79187773 10.64943389 2.85292807 10.64075415 0.9140625 10.63110352 C-0.74115417 10.63204765 -0.74115417 10.63204765 -2.42980957 10.63301086 C-5.16210938 10.25878906 -5.16210938 10.25878906 -7.02233887 8.89567566 C-8.62981665 6.58708913 -8.51426953 5.00563826 -8.16210938 2.25878906 C-5.41199338 -0.49132693 -3.85024996 0.00535416 0 0 Z " fill="#48434A" transform="translate(174.162109375,311.7412109375)"/>
<path d="M0 0 C2.375 0.4375 2.375 0.4375 4.375 2.4375 C4.33910763 9.24807629 1.00574088 14.26046707 -2.375 20 C-2.94903564 20.99346436 -3.52307129 21.98692871 -4.11450195 23.01049805 C-5.93944699 26.15992392 -7.78134606 29.29899624 -9.625 32.4375 C-10.85319965 34.54667992 -12.08106891 36.65605227 -13.30859375 38.765625 C-14.47538447 40.76110595 -15.64331244 42.75592246 -16.8125 44.75 C-17.36454102 45.69238525 -17.91658203 46.63477051 -18.48535156 47.60571289 C-18.99936523 48.47446045 -19.51337891 49.34320801 -20.04296875 50.23828125 C-20.49438232 51.00309814 -20.9457959 51.76791504 -21.41088867 52.5559082 C-22.625 54.4375 -22.625 54.4375 -24.625 56.4375 C-27.125 56.6875 -27.125 56.6875 -29.625 56.4375 C-31.625 54.4375 -31.625 54.4375 -32.00390625 51.765625 C-31.52427121 47.55274812 -29.78705121 44.6909326 -27.5625 41.1875 C-26.65032101 39.69915448 -25.74031502 38.20947583 -24.83203125 36.71875 C-24.32623535 35.89375 -23.82043945 35.06875 -23.29931641 34.21875 C-19.34036087 27.64242724 -15.59425449 20.9358318 -11.80444336 14.26074219 C-11.19093018 13.18985352 -10.57741699 12.11896484 -9.9453125 11.015625 C-9.40148926 10.06075195 -8.85766602 9.10587891 -8.29736328 8.12207031 C-3.61278879 0.60213147 -3.61278879 0.60213147 0 0 Z " fill="#453F46" transform="translate(200.625,200.5625)"/>
<path d="M0 0 C0.66 0 1.32 0 2 0 C2 5.94 2 11.88 2 18 C0.68 18.33 -0.64 18.66 -2 19 C-3.71294899 22.42589799 -3.18119745 26.35958214 -3.20532227 30.13134766 C-3.21522186 31.07773605 -3.22512146 32.02412445 -3.23532104 32.99919128 C-3.26699022 36.13745596 -3.29171488 39.27573579 -3.31640625 42.4140625 C-3.3369711 44.58597209 -3.35796744 46.75787764 -3.37937927 48.92977905 C-3.43464839 54.65410085 -3.48403631 60.37845905 -3.53222656 66.10284424 C-3.58240628 71.94099173 -3.63811074 77.77908617 -3.69335938 83.6171875 C-3.80100014 95.07807971 -3.90243194 106.53901793 -4 118 C-4.99 118 -5.98 118 -7 118 C-7 83.68 -7 49.36 -7 14 C-6.34 14 -5.68 14 -5 14 C-4.80664062 13.24074219 -4.61328125 12.48148438 -4.4140625 11.69921875 C-4.02347656 10.20841797 -4.02347656 10.20841797 -3.625 8.6875 C-3.36976563 7.70136719 -3.11453125 6.71523437 -2.8515625 5.69921875 C-2 3 -2 3 0 0 Z " fill="#464E6D" transform="translate(387,235)"/>
<path d="M0 0 C3.625 0.375 3.625 0.375 7 1 C8 3.5 8 3.5 8 7 C6.05492334 9.26636165 3.97200405 11.14855064 1.6875 13.0703125 C-0.22403235 14.82323437 -0.22403235 14.82323437 0.0234375 16.99609375 C1.59016442 20.21101739 4.0877819 22.40346698 6.6015625 24.90234375 C8 27 8 27 7.8359375 29.62890625 C7 32 7 32 5 34 C0.74997018 34 -0.78313111 33.19710145 -3.95703125 30.3125 C-4.9233228 29.22097285 -5.87495167 28.11631269 -6.8125 27 C-7.30169922 26.44054687 -7.79089844 25.88109375 -8.29492188 25.3046875 C-9.54014054 23.87862795 -10.77119889 22.44023026 -12 21 C-12.33 20.67 -12.66 20.34 -13 20 C-13.3984375 17.328125 -13.3984375 17.328125 -13 14 C-11.26279123 11.66435477 -9.66220978 9.77702373 -7.625 7.75 C-7.11710938 7.22148437 -6.60921875 6.69296875 -6.0859375 6.1484375 C-4.0837432 4.07247814 -2.03935879 2.03935879 0 0 Z " fill="#464148" transform="translate(160,212)"/>
<path d="M0 0 C4.10173388 0.72520047 6.2170607 3.37274537 8.94921875 6.30078125 C9.74875977 7.1215918 9.74875977 7.1215918 10.56445312 7.95898438 C16.77110181 14.39984622 16.77110181 14.39984622 16.7421875 17.75390625 C15.33287765 21.68425245 12.89906506 24.22013813 10.07421875 27.23828125 C9.55666016 27.82738281 9.03910156 28.41648438 8.50585938 29.0234375 C5.86930242 31.87998115 4.27612515 33.32848954 0.4921875 34.50390625 C-2.23828125 34.48828125 -2.23828125 34.48828125 -4.23828125 32.48828125 C-4.7324025 28.77207769 -4.62924839 27.05902345 -2.48828125 23.93359375 C-1.74578125 23.16789062 -1.00328125 22.4021875 -0.23828125 21.61328125 C0.50421875 20.83210938 1.24671875 20.0509375 2.01171875 19.24609375 C2.58921875 18.66601562 3.16671875 18.0859375 3.76171875 17.48828125 C3.36339844 17.029375 2.96507812 16.57046875 2.5546875 16.09765625 C1.46472203 14.83531181 0.38025725 13.568201 -0.69921875 12.296875 C-1.84344824 10.95226014 -3.00514371 9.6224688 -4.17578125 8.30078125 C-5.23828125 6.48828125 -5.23828125 6.48828125 -5.05078125 4.36328125 C-3.88372151 1.67006646 -2.88638842 0.62966589 0 0 Z " fill="#464047" transform="translate(211.23828125,211.51171875)"/>
<path d="M0 0 C103.29 0 206.58 0 313 0 C313 12 313 12 310 17 C306.91111478 19.05925681 306.29064073 19.2390374 302.8125 19.125 C301.554375 19.08375 300.29625 19.0425 299 19 C303.75 15 303.75 15 306 15 C306.483059 13.60550891 306.96125517 12.20933293 307.4375 10.8125 C307.70433594 10.03519531 307.97117187 9.25789063 308.24609375 8.45703125 C308.99513423 6.01585787 309.49921642 3.50391792 310 1 C207.7 1 105.4 1 0 1 C0 0.67 0 0.34 0 0 Z " fill="#43475F" transform="translate(90,363)"/>
<path d="M0 0 C3.625 0.375 3.625 0.375 7 1 C8.33157895 6.44736842 8.33157895 6.44736842 6.875 8.875 C4.40522151 10.3568671 2.83386167 10.3633156 0 10 C-2 8 -2 8 -2.25 5 C-2 2 -2 2 0 0 Z " fill="#49444B" transform="translate(149,294)"/>
<path d="M0 0 C2.5625 0.3125 2.5625 0.3125 4.4375 1.4375 C6.11540631 4.23401052 5.31125648 6.24940532 4.5625 9.3125 C1.1875 9.9375 1.1875 9.9375 -2.4375 10.3125 C-4.4375 8.3125 -4.4375 8.3125 -4.6875 5.3125 C-4.37675292 1.58353509 -3.7821044 0.48488518 0 0 Z " fill="#49434B" transform="translate(151.4375,275.6875)"/>
<path d="M0 0 C3 0.25 3 0.25 5 2.25 C5.25 4.75 5.25 4.75 5 7.25 C3 9.25 3 9.25 -0.5625 9.4375 C-4 9.25 -4 9.25 -5 8.25 C-5.1875 5.3125 -5.1875 5.3125 -5 2.25 C-3 0.25 -3 0.25 0 0 Z " fill="#474249" transform="translate(152,311.75)"/>
<path d="M0 0 C1.65322266 0.01740234 1.65322266 0.01740234 3.33984375 0.03515625 C4.99693359 0.04869141 4.99693359 0.04869141 6.6875 0.0625 C7.54214844 0.07410156 8.39679688 0.08570313 9.27734375 0.09765625 C6.27915069 2.37070494 3.2324387 4.56199262 0.15234375 6.72265625 C-0.71648437 7.33367187 -1.5853125 7.9446875 -2.48046875 8.57421875 C-4.72265625 10.09765625 -4.72265625 10.09765625 -6.72265625 11.09765625 C-6.24739745 9.45069021 -5.76733734 7.80510897 -5.28515625 6.16015625 C-5.01832031 5.24363281 -4.75148438 4.32710937 -4.4765625 3.3828125 C-3.40076605 0.1219787 -3.40076605 0.1219787 0 0 Z " fill="#668A95" transform="translate(361.72265625,129.90234375)"/>
<path d="M0 0 C0.33 0 0.66 0 1 0 C0.96519531 0.90621094 0.93039062 1.81242188 0.89453125 2.74609375 C0.74601538 9.42930808 0.7778686 15.03922345 3.44140625 21.23046875 C4 23 4 23 3 26 C-1.2303888 19.03496701 -3.19445688 13.18517291 -2 5 C-1.38636509 3.31308731 -0.73258789 1.63876087 0 0 Z " fill="#D8DDDE" transform="translate(344,175)"/>
</svg>
